<svg width="250" height="250" viewBox="0 0 250 250" fill="none" xmlns="http://www.w3.org/2000/svg">
<circle cx="125" cy="125" r="125" fill="#90EE90"/>
<path d="M149.381 73H100.619C96.4182 73 93 76.4167 93 80.619V117.19C93 121.393 96.4182 124.81 100.619 124.81H149.381C153.582 124.81 157 121.393 157 117.19V80.619C157 76.4167 153.582 73 149.381 73ZM153.952 117.19C153.952 119.711 151.902 121.762 149.381 121.762H100.619C98.0982 121.762 96.0476 119.711 96.0476 117.19V80.619C96.0476 78.0982 98.0982 76.0476 100.619 76.0476H149.381C151.902 76.0476 153.952 78.0982 153.952 80.619V117.19ZM119.982 97.8274C120.577 98.4226 120.577 99.3869 119.982 99.9822L107.792 112.173C107.494 112.47 107.104 112.619 106.714 112.619C106.324 112.619 105.935 112.47 105.637 112.173C105.042 111.578 105.042 110.613 105.637 110.018L116.75 98.9048L105.637 87.7916C105.042 87.1964 105.042 86.2322 105.637 85.6368C106.232 85.0414 107.196 85.0416 107.792 85.6368L119.982 97.8274ZM144.81 111.095C144.81 111.937 144.128 112.619 143.286 112.619H125C124.158 112.619 123.476 111.937 123.476 111.095C123.476 110.253 124.158 109.571 125 109.571H143.286C144.128 109.571 144.81 110.253 144.81 111.095Z" fill="#0C0C0C"/>
<path d="M42.272 157.632C43.408 157.632 44.4 157.88 45.248 158.376C46.112 158.872 46.752 159.496 47.168 160.248V157.848H49.376V171.288C49.376 172.488 49.12 173.552 48.608 174.48C48.096 175.424 47.36 176.16 46.4 176.688C45.456 177.216 44.352 177.48 43.088 177.48C41.36 177.48 39.92 177.072 38.768 176.256C37.616 175.44 36.936 174.328 36.728 172.92H38.888C39.128 173.72 39.624 174.36 40.376 174.84C41.128 175.336 42.032 175.584 43.088 175.584C44.288 175.584 45.264 175.208 46.016 174.456C46.784 173.704 47.168 172.648 47.168 171.288V168.528C46.736 169.296 46.096 169.936 45.248 170.448C44.4 170.96 43.408 171.216 42.272 171.216C41.104 171.216 40.04 170.928 39.08 170.352C38.136 169.776 37.392 168.968 36.848 167.928C36.304 166.888 36.032 165.704 36.032 164.376C36.032 163.032 36.304 161.856 36.848 160.848C37.392 159.824 38.136 159.032 39.08 158.472C40.04 157.912 41.104 157.632 42.272 157.632ZM47.168 164.4C47.168 163.408 46.968 162.544 46.568 161.808C46.168 161.072 45.624 160.512 44.936 160.128C44.264 159.728 43.52 159.528 42.704 159.528C41.888 159.528 41.144 159.72 40.472 160.104C39.8 160.488 39.264 161.048 38.864 161.784C38.464 162.52 38.264 163.384 38.264 164.376C38.264 165.384 38.464 166.264 38.864 167.016C39.264 167.752 39.8 168.32 40.472 168.72C41.144 169.104 41.888 169.296 42.704 169.296C43.52 169.296 44.264 169.104 44.936 168.72C45.624 168.32 46.168 167.752 46.568 167.016C46.968 166.264 47.168 165.392 47.168 164.4ZM65.0668 163.92C65.0668 164.336 65.0428 164.776 64.9948 165.24H54.4828C54.5628 166.536 55.0028 167.552 55.8028 168.288C56.6188 169.008 57.6028 169.368 58.7548 169.368C59.6988 169.368 60.4828 169.152 61.1068 168.72C61.7468 168.272 62.1948 167.68 62.4508 166.944H64.8028C64.4508 168.208 63.7468 169.24 62.6908 170.04C61.6348 170.824 60.3228 171.216 58.7548 171.216C57.5068 171.216 56.3868 170.936 55.3948 170.376C54.4188 169.816 53.6508 169.024 53.0908 168C52.5308 166.96 52.2508 165.76 52.2508 164.4C52.2508 163.04 52.5228 161.848 53.0668 160.824C53.6108 159.8 54.3708 159.016 55.3468 158.472C56.3388 157.912 57.4748 157.632 58.7548 157.632C60.0028 157.632 61.1068 157.904 62.0668 158.448C63.0268 158.992 63.7628 159.744 64.2748 160.704C64.8028 161.648 65.0668 162.72 65.0668 163.92ZM62.8108 163.464C62.8108 162.632 62.6268 161.92 62.2588 161.328C61.8908 160.72 61.3868 160.264 60.7468 159.96C60.1228 159.64 59.4268 159.48 58.6588 159.48C57.5548 159.48 56.6108 159.832 55.8268 160.536C55.0588 161.24 54.6188 162.216 54.5068 163.464H62.8108ZM70.6136 159.648V167.4C70.6136 168.04 70.7496 168.496 71.0216 168.768C71.2936 169.024 71.7656 169.152 72.4376 169.152H74.0456V171H72.0776C70.8616 171 69.9496 170.72 69.3416 170.16C68.7336 169.6 68.4296 168.68 68.4296 167.4V159.648H66.7256V157.848H68.4296V154.536H70.6136V157.848H74.0456V159.648H70.6136ZM81.3478 171.216C80.3398 171.216 79.4358 171.048 78.6358 170.712C77.8358 170.36 77.2038 169.88 76.7398 169.272C76.2758 168.648 76.0198 167.936 75.9718 167.136H78.2278C78.2918 167.792 78.5958 168.328 79.1398 168.744C79.6998 169.16 80.4278 169.368 81.3238 169.368C82.1558 169.368 82.8118 169.184 83.2918 168.816C83.7718 168.448 84.0118 167.984 84.0118 167.424C84.0118 166.848 83.7558 166.424 83.2438 166.152C82.7318 165.864 81.9398 165.584 80.8678 165.312C79.8918 165.056 79.0918 164.8 78.4678 164.544C77.8598 164.272 77.3318 163.88 76.8838 163.368C76.4518 162.84 76.2358 162.152 76.2358 161.304C76.2358 160.632 76.4358 160.016 76.8358 159.456C77.2358 158.896 77.8038 158.456 78.5398 158.136C79.2758 157.8 80.1158 157.632 81.0598 157.632C82.5158 157.632 83.6918 158 84.5878 158.736C85.4838 159.472 85.9638 160.48 86.0278 161.76H83.8438C83.7958 161.072 83.5158 160.52 83.0038 160.104C82.5078 159.688 81.8358 159.48 80.9878 159.48C80.2038 159.48 79.5798 159.648 79.1158 159.984C78.6518 160.32 78.4198 160.76 78.4198 161.304C78.4198 161.736 78.5558 162.096 78.8278 162.384C79.1158 162.656 79.4678 162.88 79.8838 163.056C80.3158 163.216 80.9078 163.4 81.6598 163.608C82.6038 163.864 83.3718 164.12 83.9638 164.376C84.5558 164.616 85.0598 164.984 85.4758 165.48C85.9078 165.976 86.1318 166.624 86.1478 167.424C86.1478 168.144 85.9478 168.792 85.5478 169.368C85.1478 169.944 84.5798 170.4 83.8438 170.736C83.1238 171.056 82.2918 171.216 81.3478 171.216ZM101.231 163.92C101.231 164.336 101.207 164.776 101.159 165.24H90.6468C90.7268 166.536 91.1668 167.552 91.9668 168.288C92.7828 169.008 93.7668 169.368 94.9188 169.368C95.8628 169.368 96.6468 169.152 97.2708 168.72C97.9108 168.272 98.3588 167.68 98.6148 166.944H100.967C100.615 168.208 99.9108 169.24 98.8548 170.04C97.7988 170.824 96.4868 171.216 94.9188 171.216C93.6708 171.216 92.5508 170.936 91.5588 170.376C90.5828 169.816 89.8148 169.024 89.2548 168C88.6948 166.96 88.4148 165.76 88.4148 164.4C88.4148 163.04 88.6868 161.848 89.2308 160.824C89.7748 159.8 90.5348 159.016 91.5108 158.472C92.5028 157.912 93.6388 157.632 94.9188 157.632C96.1668 157.632 97.2708 157.904 98.2308 158.448C99.1908 158.992 99.9268 159.744 100.439 160.704C100.967 161.648 101.231 162.72 101.231 163.92ZM98.9748 163.464C98.9748 162.632 98.7908 161.92 98.4228 161.328C98.0548 160.72 97.5508 160.264 96.9108 159.96C96.2868 159.64 95.5908 159.48 94.8228 159.48C93.7188 159.48 92.7748 159.832 91.9908 160.536C91.2228 161.24 90.7828 162.216 90.6708 163.464H98.9748ZM106.778 159.648V167.4C106.778 168.04 106.914 168.496 107.186 168.768C107.458 169.024 107.93 169.152 108.602 169.152H110.21V171H108.242C107.026 171 106.114 170.72 105.506 170.16C104.898 169.6 104.594 168.68 104.594 167.4V159.648H102.89V157.848H104.594V154.536H106.778V157.848H110.21V159.648H106.778ZM118.28 157.632C119.416 157.632 120.408 157.88 121.256 158.376C122.12 158.872 122.76 159.496 123.176 160.248V157.848H125.384V171.288C125.384 172.488 125.128 173.552 124.616 174.48C124.104 175.424 123.368 176.16 122.408 176.688C121.464 177.216 120.36 177.48 119.096 177.48C117.368 177.48 115.928 177.072 114.776 176.256C113.624 175.44 112.944 174.328 112.736 172.92H114.896C115.136 173.72 115.632 174.36 116.384 174.84C117.136 175.336 118.04 175.584 119.096 175.584C120.296 175.584 121.272 175.208 122.024 174.456C122.792 173.704 123.176 172.648 123.176 171.288V168.528C122.744 169.296 122.104 169.936 121.256 170.448C120.408 170.96 119.416 171.216 118.28 171.216C117.112 171.216 116.048 170.928 115.088 170.352C114.144 169.776 113.4 168.968 112.856 167.928C112.312 166.888 112.04 165.704 112.04 164.376C112.04 163.032 112.312 161.856 112.856 160.848C113.4 159.824 114.144 159.032 115.088 158.472C116.048 157.912 117.112 157.632 118.28 157.632ZM123.176 164.4C123.176 163.408 122.976 162.544 122.576 161.808C122.176 161.072 121.632 160.512 120.944 160.128C120.272 159.728 119.528 159.528 118.712 159.528C117.896 159.528 117.152 159.72 116.48 160.104C115.808 160.488 115.272 161.048 114.872 161.784C114.472 162.52 114.272 163.384 114.272 164.376C114.272 165.384 114.472 166.264 114.872 167.016C115.272 167.752 115.808 168.32 116.48 168.72C117.152 169.104 117.896 169.296 118.712 169.296C119.528 169.296 120.272 169.104 120.944 168.72C121.632 168.32 122.176 167.752 122.576 167.016C122.976 166.264 123.176 165.392 123.176 164.4ZM134.811 171.216C133.579 171.216 132.459 170.936 131.451 170.376C130.459 169.816 129.675 169.024 129.099 168C128.539 166.96 128.259 165.76 128.259 164.4C128.259 163.056 128.547 161.872 129.123 160.848C129.715 159.808 130.515 159.016 131.523 158.472C132.531 157.912 133.659 157.632 134.907 157.632C136.155 157.632 137.283 157.912 138.291 158.472C139.299 159.016 140.091 159.8 140.667 160.824C141.259 161.848 141.555 163.04 141.555 164.4C141.555 165.76 141.251 166.96 140.643 168C140.051 169.024 139.243 169.816 138.219 170.376C137.195 170.936 136.059 171.216 134.811 171.216ZM134.811 169.296C135.595 169.296 136.331 169.112 137.019 168.744C137.707 168.376 138.259 167.824 138.675 167.088C139.107 166.352 139.323 165.456 139.323 164.4C139.323 163.344 139.115 162.448 138.699 161.712C138.283 160.976 137.739 160.432 137.067 160.08C136.395 159.712 135.667 159.528 134.883 159.528C134.083 159.528 133.347 159.712 132.675 160.08C132.019 160.432 131.491 160.976 131.091 161.712C130.691 162.448 130.491 163.344 130.491 164.4C130.491 165.472 130.683 166.376 131.067 167.112C131.467 167.848 131.995 168.4 132.651 168.768C133.307 169.12 134.027 169.296 134.811 169.296ZM145.122 171.144C144.706 171.144 144.354 171 144.066 170.712C143.778 170.424 143.634 170.072 143.634 169.656C143.634 169.24 143.778 168.888 144.066 168.6C144.354 168.312 144.706 168.168 145.122 168.168C145.522 168.168 145.858 168.312 146.13 168.6C146.418 168.888 146.562 169.24 146.562 169.656C146.562 170.072 146.418 170.424 146.13 170.712C145.858 171 145.522 171.144 145.122 171.144ZM148.649 164.4C148.649 163.04 148.921 161.856 149.465 160.848C150.009 159.824 150.761 159.032 151.721 158.472C152.697 157.912 153.809 157.632 155.057 157.632C156.673 157.632 158.001 158.024 159.041 158.808C160.097 159.592 160.793 160.68 161.129 162.072H158.777C158.553 161.272 158.113 160.64 157.457 160.176C156.817 159.712 156.017 159.48 155.057 159.48C153.809 159.48 152.801 159.912 152.033 160.776C151.265 161.624 150.881 162.832 150.881 164.4C150.881 165.984 151.265 167.208 152.033 168.072C152.801 168.936 153.809 169.368 155.057 169.368C156.017 169.368 156.817 169.144 157.457 168.696C158.097 168.248 158.537 167.608 158.777 166.776H161.129C160.777 168.12 160.073 169.2 159.017 170.016C157.961 170.816 156.641 171.216 155.057 171.216C153.809 171.216 152.697 170.936 151.721 170.376C150.761 169.816 150.009 169.024 149.465 168C148.921 166.976 148.649 165.776 148.649 164.4ZM166.227 153.24V171H164.043V153.24H166.227ZM175.686 171.216C174.454 171.216 173.334 170.936 172.326 170.376C171.334 169.816 170.55 169.024 169.974 168C169.414 166.96 169.134 165.76 169.134 164.4C169.134 163.056 169.422 161.872 169.998 160.848C170.59 159.808 171.39 159.016 172.398 158.472C173.406 157.912 174.534 157.632 175.782 157.632C177.03 157.632 178.158 157.912 179.166 158.472C180.174 159.016 180.966 159.8 181.542 160.824C182.134 161.848 182.43 163.04 182.43 164.4C182.43 165.76 182.126 166.96 181.518 168C180.926 169.024 180.118 169.816 179.094 170.376C178.07 170.936 176.934 171.216 175.686 171.216ZM175.686 169.296C176.47 169.296 177.206 169.112 177.894 168.744C178.582 168.376 179.134 167.824 179.55 167.088C179.982 166.352 180.198 165.456 180.198 164.4C180.198 163.344 179.99 162.448 179.574 161.712C179.158 160.976 178.614 160.432 177.942 160.08C177.27 159.712 176.542 159.528 175.758 159.528C174.958 159.528 174.222 159.712 173.55 160.08C172.894 160.432 172.366 160.976 171.966 161.712C171.566 162.448 171.366 163.344 171.366 164.4C171.366 165.472 171.558 166.376 171.942 167.112C172.342 167.848 172.87 168.4 173.526 168.768C174.182 169.12 174.902 169.296 175.686 169.296ZM196.965 157.848V171H194.781V169.056C194.365 169.728 193.781 170.256 193.029 170.64C192.293 171.008 191.477 171.192 190.581 171.192C189.557 171.192 188.637 170.984 187.821 170.568C187.005 170.136 186.357 169.496 185.877 168.648C185.413 167.8 185.181 166.768 185.181 165.552V157.848H187.341V165.264C187.341 166.56 187.669 167.56 188.325 168.264C188.981 168.952 189.877 169.296 191.013 169.296C192.181 169.296 193.101 168.936 193.773 168.216C194.445 167.496 194.781 166.448 194.781 165.072V157.848H196.965ZM199.837 164.376C199.837 163.032 200.109 161.856 200.653 160.848C201.197 159.824 201.941 159.032 202.885 158.472C203.845 157.912 204.917 157.632 206.101 157.632C207.125 157.632 208.077 157.872 208.957 158.352C209.837 158.816 210.509 159.432 210.973 160.2V153.24H213.181V171H210.973V168.528C210.541 169.312 209.901 169.96 209.053 170.472C208.205 170.968 207.213 171.216 206.077 171.216C204.909 171.216 203.845 170.928 202.885 170.352C201.941 169.776 201.197 168.968 200.653 167.928C200.109 166.888 199.837 165.704 199.837 164.376ZM210.973 164.4C210.973 163.408 210.773 162.544 210.373 161.808C209.973 161.072 209.429 160.512 208.741 160.128C208.069 159.728 207.325 159.528 206.509 159.528C205.693 159.528 204.949 159.72 204.277 160.104C203.605 160.488 203.069 161.048 202.669 161.784C202.269 162.52 202.069 163.384 202.069 164.376C202.069 165.384 202.269 166.264 202.669 167.016C203.069 167.752 203.605 168.32 204.277 168.72C204.949 169.104 205.693 169.296 206.509 169.296C207.325 169.296 208.069 169.104 208.741 168.72C209.429 168.32 209.973 167.752 210.373 167.016C210.773 166.264 210.973 165.392 210.973 164.4Z" fill="#0C0C0C"/>
</svg>
